<?xml version="1.0" encoding="UTF-8"?><svg id="a" xmlns="http://www.w3.org/2000/svg" xmlns:xlink="http://www.w3.org/1999/xlink" viewBox="0 0 500 160"><defs><style>.d{fill:#d2edf3;font-family:MyriadPro-Regular, 'Myriad Pro';font-size:19.11px;}.e{fill:#006838;}.f{fill:#fff;}.g{fill:#999965;}.h{fill:#e1e9ee;}.i{fill:#54a646;}.j{letter-spacing:-.02em;}.k{letter-spacing:-.01em;}.l{filter:url(#b);}.l,.m,.n{fill:none;}.m{stroke:#3c2415;stroke-width:.31px;}.m,.n{stroke-miterlimit:10;}.n{opacity:.9;stroke:#54a646;stroke-width:4.39px;}.o{letter-spacing:-.09em;}</style><filter id="b" filterUnits="userSpaceOnUse"><feOffset dx="1.22" dy="1.22"/><feGaussianBlur result="c" stdDeviation=".87"/><feFlood flood-color="#231f20" flood-opacity=".3"/><feComposite in2="c" operator="in"/><feComposite in="SourceGraphic"/></filter></defs><rect class="n" x="142.68" y="31.38" width="214.63" height="97.23" rx="2.5" ry="2.5" transform="translate(-9.21 38.65) rotate(-8.68)"/><path class="h" d="m457.87,130.81H42.13c-2.91,0-5.27-2.36-5.27-5.27V35.34c0-3.39,2.75-6.15,6.15-6.15h414.87c2.91,0,5.27,2.36,5.27,5.27v91.08c0,2.91-2.36,5.27-5.27,5.27Z"/><path class="m" d="m457.87,130.81H42.13c-2.91,0-5.27-2.36-5.27-5.27V35.34c0-3.39,2.75-6.15,6.15-6.15h414.87c2.91,0,5.27,2.36,5.27,5.27v91.08c0,2.91-2.36,5.27-5.27,5.27Z"/><rect class="i" x="168.11" y="36.23" width="163.77" height="87.53" rx="5.85" ry="5.85"/><text class="d" transform="translate(391.29 144.93)"><tspan class="k" x="0" y="0">C</tspan><tspan class="j" x="10.88" y="0">o</tspan><tspan x="20.91" y="0">. </tspan><tspan class="o" x="28.92" y="0">L</tspan><tspan x="36.26" y="0">TD</tspan></text><path class="g" d="m82.76,64.62h-10.2l-8.98,33.57c-.52,1.93-1.33,3.37-2.44,4.3-1.11.93-2.35,1.4-3.71,1.4s-2.39-.47-3-1.42-.67-2.37-.16-4.29l8.98-33.57h-10.2c-1.59,0-2.69-.35-3.27-1.06s-.73-1.63-.42-2.79.98-2.14,1.97-2.84c.99-.69,2.26-1.04,3.79-1.04h29.71c1.62,0,2.72.36,3.32,1.07.6.71.74,1.65.43,2.81s-.96,2.09-1.94,2.79c-.99.7-2.28,1.06-3.87,1.06Z"/><path class="g" d="m100.92,61.34l-3.41,12.76c1.43-1.26,2.76-2.26,4-2.99,1.24-.74,2.53-1.29,3.89-1.65,1.36-.37,2.76-.55,4.21-.55,2.18,0,3.99.46,5.43,1.39,1.44.92,2.41,2.27,2.9,4.03.33,1.03.43,2.18.3,3.45-.13,1.27-.42,2.74-.86,4.4l-4.41,16.48c-.46,1.72-1.2,3.03-2.23,3.91s-2.18,1.32-3.49,1.32c-2.83,0-3.78-1.74-2.85-5.23l3.89-14.53c.74-2.75.89-4.87.47-6.35-.42-1.48-1.78-2.22-4.06-2.22-1.53,0-3.03.44-4.49,1.31-1.46.87-2.7,2.06-3.71,3.58-.8,1.28-1.64,3.56-2.52,6.84l-3.04,11.38c-.46,1.7-1.19,3-2.19,3.89s-2.19,1.34-3.55,1.34c-2.83,0-3.78-1.74-2.85-5.23l9.98-37.32c.47-1.74,1.19-3.05,2.17-3.93.98-.87,2.14-1.31,3.48-1.31s2.31.44,2.84,1.32.56,2.19.1,3.91Z"/><path class="g" d="m148.15,88.51h-16.8c-.5,1.95-.57,3.68-.2,5.17.37,1.49,1.08,2.62,2.15,3.37,1.07.76,2.37,1.13,3.9,1.13,1.03,0,2-.12,2.91-.36s1.84-.62,2.77-1.13,1.82-1.07,2.65-1.66c.83-.59,1.91-1.39,3.25-2.4.54-.38,1.22-.57,2.04-.57.88,0,1.53.24,1.95.73.42.48.51,1.17.27,2.05-.21.78-.76,1.69-1.64,2.73-.89,1.04-2.07,2.04-3.55,2.99-1.48.96-3.24,1.75-5.26,2.38-2.03.63-4.24.95-6.66.95-5.52,0-9.39-1.58-11.61-4.73-2.22-3.15-2.61-7.43-1.16-12.83.68-2.54,1.69-4.9,3.03-7.08,1.34-2.17,2.94-4.04,4.8-5.59,1.86-1.56,3.97-2.75,6.31-3.58,2.34-.83,4.8-1.24,7.38-1.24,3.36,0,6.05.71,8.07,2.13s3.33,3.25,3.93,5.5c.59,2.25.58,4.54-.04,6.87-.58,2.16-1.57,3.57-2.98,4.21s-3.24.96-5.48.96Zm-15.5-4.89h15.58c.58-2.94.37-5.14-.61-6.6-.98-1.46-2.6-2.19-4.84-2.19s-4.1.74-5.87,2.22c-1.77,1.48-3.19,3.67-4.26,6.57Z"/><path class="g" d="m369.42,97.63l-.59-5.21h-16.85l-3.4,5.32c-1.33,2.08-2.36,3.48-3.1,4.21-.74.73-1.73,1.09-2.98,1.09-1.06,0-1.89-.39-2.49-1.16-.6-.77-.77-1.65-.51-2.63.15-.57.4-1.15.75-1.76.35-.6.89-1.44,1.61-2.52l17.82-26.96c.51-.77,1.12-1.7,1.83-2.79.71-1.08,1.41-1.99,2.08-2.7.67-.72,1.46-1.3,2.36-1.74.9-.44,1.93-.67,3.08-.67s2.08.22,2.75.67,1.14,1.02,1.44,1.71c.29.7.5,1.45.61,2.25.12.8.25,1.87.4,3.22l3.66,26.79c.3,2.04.33,3.52.08,4.45s-.89,1.85-1.91,2.65c-1.02.8-2.09,1.2-3.22,1.2-.66,0-1.19-.12-1.6-.35-.41-.24-.72-.56-.93-.96-.21-.41-.39-1.03-.53-1.87-.14-.84-.26-1.58-.35-2.22Zm-13.54-11.53h12.38l-1.66-17.13-10.72,17.13Z"/><path class="g" d="m396.94,75.94l-.25.94c1.93-1.79,3.79-3.11,5.58-3.95s3.67-1.26,5.65-1.26c2.37,0,4.4.61,6.07,1.84,1.67,1.23,2.77,3.02,3.3,5.38.53,2.36.36,5.15-.5,8.38-.64,2.38-1.56,4.56-2.76,6.56s-2.57,3.66-4.1,5.01c-1.53,1.35-3.19,2.39-4.98,3.12-1.79.73-3.6,1.09-5.42,1.09-2.21,0-3.94-.44-5.2-1.33s-2.34-2.19-3.24-3.91l-3.11,11.61c-.91,3.4-2.6,5.1-5.07,5.1-1.45,0-2.29-.44-2.53-1.32-.24-.88-.13-2.16.32-3.84l8.92-33.36c.39-1.47,1.01-2.57,1.84-3.3.84-.73,1.81-1.09,2.92-1.09s1.88.37,2.37,1.12c.49.75.55,1.82.17,3.21Zm12.12,11.24c.55-2.04.7-3.79.47-5.25-.23-1.46-.79-2.59-1.69-3.37s-2.01-1.18-3.35-1.18c-2.13,0-4.15.84-6.06,2.52-1.91,1.68-3.3,4.15-4.18,7.42-.82,3.08-.74,5.47.26,7.18.99,1.71,2.57,2.56,4.71,2.56,1.28,0,2.57-.37,3.86-1.12,1.29-.75,2.47-1.86,3.53-3.36s1.87-3.29,2.44-5.41Z"/><path class="g" d="m433.13,75.94l-.25.94c1.93-1.79,3.79-3.11,5.58-3.95s3.67-1.26,5.65-1.26c2.37,0,4.4.61,6.07,1.84,1.67,1.23,2.77,3.02,3.3,5.38.53,2.36.36,5.15-.5,8.38-.64,2.38-1.56,4.56-2.76,6.56s-2.57,3.66-4.1,5.01c-1.53,1.35-3.19,2.39-4.98,3.12-1.79.73-3.6,1.09-5.42,1.09-2.21,0-3.94-.44-5.2-1.33s-2.34-2.19-3.24-3.91l-3.11,11.61c-.91,3.4-2.6,5.1-5.07,5.1-1.45,0-2.29-.44-2.53-1.32s-.13-2.16.32-3.84l8.92-33.36c.39-1.47,1.01-2.57,1.84-3.3.84-.73,1.81-1.09,2.92-1.09s1.88.37,2.37,1.12c.49.75.55,1.82.17,3.21Zm12.12,11.24c.55-2.04.7-3.79.47-5.25-.23-1.46-.79-2.59-1.69-3.37s-2.01-1.18-3.35-1.18c-2.13,0-4.15.84-6.06,2.52-1.91,1.68-3.3,4.15-4.18,7.42-.82,3.08-.74,5.47.26,7.18.99,1.71,2.57,2.56,4.71,2.56,1.28,0,2.57-.37,3.86-1.12,1.29-.75,2.47-1.86,3.53-3.36s1.87-3.29,2.44-5.41Z"/><path class="f" d="m201.83,56.91v36.4h7.18v9.11h-19v-45.5h11.81Z"/><path class="f" d="m237.19,78.21v9.13c0,3.35-.17,5.81-.51,7.38-.34,1.57-1.06,3.03-2.16,4.38-1.1,1.36-2.52,2.36-4.25,3.01s-3.72.97-5.96.97c-2.51,0-4.63-.28-6.37-.83-1.74-.55-3.09-1.39-4.06-2.5-.96-1.11-1.65-2.46-2.06-4.05-.41-1.58-.62-3.96-.62-7.12v-9.56c0-3.47.37-6.17,1.12-8.12.75-1.95,2.09-3.51,4.04-4.69,1.95-1.18,4.43-1.77,7.46-1.77,2.54,0,4.73.38,6.55,1.14,1.82.76,3.23,1.75,4.22,2.97.99,1.22,1.67,2.47,2.03,3.77s.55,3.26.55,5.9Zm-11.34-2.81c0-1.91-.1-3.11-.31-3.61-.21-.5-.65-.75-1.32-.75s-1.12.25-1.35.75c-.22.5-.34,1.7-.34,3.61v16.83c0,1.76.11,2.91.34,3.44.22.53.66.8,1.32.8s1.12-.24,1.33-.73c.22-.49.32-1.54.32-3.15v-17.2Z"/><path class="f" d="m265.98,79.2h-10.69v-4.3c0-1.5-.12-2.52-.36-3.05-.24-.53-.69-.8-1.35-.8s-1.09.23-1.32.7c-.22.47-.34,1.52-.34,3.15v17.59c0,1.33.17,2.33.51,2.99.34.66.83,1,1.49,1,.77,0,1.29-.35,1.56-1.04.27-.69.41-2,.41-3.93v-4.44h10.1c-.02,2.98-.13,5.21-.32,6.7-.2,1.49-.82,3.02-1.88,4.58-1.06,1.56-2.44,2.74-4.14,3.54-1.7.8-3.81,1.19-6.31,1.19-3.2,0-5.73-.55-7.6-1.64-1.87-1.1-3.19-2.63-3.97-4.61-.78-1.98-1.16-4.78-1.16-8.42v-10.6c0-3.17.32-5.56.95-7.17.64-1.61,1.99-3.05,4.07-4.31s4.6-1.9,7.58-1.9,5.48.63,7.58,1.88c2.1,1.26,3.49,2.84,4.18,4.75s1.04,4.62,1.04,8.12Z"/><path class="f" d="m279.48,79.56h-10.63v-2.5c0-2.89.33-5.11,1-6.68.66-1.56,2-2.95,4-4.15,2-1.2,4.6-1.8,7.8-1.8,3.83,0,6.72.68,8.67,2.04,1.95,1.36,3.12,3.03,3.51,5,.39,1.98.59,6.05.59,12.21v18.72h-11.03v-3.32c-.69,1.33-1.59,2.33-2.68,3-1.09.67-2.4,1-3.91,1-1.98,0-3.8-.56-5.46-1.67-1.66-1.12-2.48-3.56-2.48-7.32v-3.06c0-2.79.44-4.69,1.32-5.71.88-1.01,3.06-2.19,6.54-3.54,3.72-1.46,5.71-2.44,5.98-2.95.26-.51.39-1.54.39-3.09,0-1.95-.15-3.22-.43-3.81-.29-.59-.77-.89-1.45-.89-.77,0-1.24.25-1.43.75-.19.5-.28,1.78-.28,3.86v3.91Zm3.59,5.12c-1.81,1.33-2.87,2.45-3.16,3.34-.29.9-.43,2.19-.43,3.88,0,1.93.13,3.18.38,3.74.25.56.75.84,1.5.84s1.17-.22,1.39-.66c.21-.44.32-1.6.32-3.47v-7.67Z"/><path class="f" d="m309.98,56.91v45.5h-11.67v-45.5h11.67Z"/><g class="l"><path class="e" d="m420.74,42.04c8.6-8.79,20.12-6.71,26.91,3.01.34.44.95,1.37,1.21,1.85.36.64.73,1.28,1.05,1.95,0,0-.16.11-.16.11-9.14-9.04-16.65-16.41-28.89-6.78,0,0-.13-.14-.13-.14h0Z"/><path class="e" d="m420.81,41.91c12.25,9.64,19.75,2.25,28.89-6.78,0,0,.16.11.16.11-.32.66-.69,1.3-1.05,1.95-.27.49-.87,1.41-1.21,1.85-4.1,6.16-12.22,10.53-19.56,7.81-2.82-1.02-5.28-2.76-7.35-4.79l.13-.14h0Z"/></g></svg>